<?xml version="1.0" encoding="UTF-8" ?>
<!DOCTYPE svg PUBLIC "-//W3C//DTD SVG 1.1//EN" "http://www.w3.org/Graphics/SVG/1.1/DTD/svg11.dtd">
<svg width="1067pt" height="1067pt" viewBox="0 0 1067 1067" version="1.1" xmlns="http://www.w3.org/2000/svg">
<g id="#1a7a3dff">
<path fill="#1a7a3d" opacity="1.00" d=" M 175.39 0.00 L 892.51 0.00 C 927.20 2.32 961.29 14.16 989.53 34.53 C 1017.47 54.45 1039.83 82.15 1053.19 113.77 C 1060.18 129.64 1064.00 146.64 1067.00 163.66 L 1067.00 250.63 C 1064.93 244.64 1064.29 238.28 1062.70 232.16 C 1055.02 202.16 1038.09 174.64 1014.96 154.06 C 989.93 131.77 957.55 117.76 924.07 115.31 C 913.09 114.09 902.03 114.48 891.00 114.43 C 858.68 114.42 826.36 114.43 794.04 114.43 C 771.88 114.49 749.71 114.22 727.55 114.71 C 715.89 103.42 702.94 93.52 689.34 84.69 C 642.87 54.25 587.37 38.16 531.91 37.65 C 461.32 37.95 391.52 66.28 339.98 114.37 C 281.98 114.49 223.98 114.39 165.97 114.42 C 148.62 114.26 131.15 115.81 114.38 120.45 C 83.27 129.07 55.09 147.76 34.89 172.92 C 17.10 194.96 5.43 221.89 1.61 249.95 C 1.12 253.58 1.15 257.31 0.00 260.83 L 0.00 176.59 C 1.30 154.74 6.19 133.05 14.96 112.97 C 28.19 82.07 49.99 54.92 77.26 35.27 C 105.72 14.46 140.25 2.31 175.39 0.00 Z" />
<path fill="#1a7a3d" opacity="1.00" d=" M 449.29 85.23 C 485.12 71.96 524.16 67.07 562.09 72.11 C 601.64 76.73 639.84 91.38 672.91 113.46 C 668.86 115.30 664.32 114.35 660.03 114.43 C 574.34 114.42 488.65 114.42 402.96 114.44 C 399.97 114.31 396.73 115.00 394.01 113.41 C 411.30 101.98 429.82 92.36 449.29 85.23 Z" />
<path fill="#1a7a3d" opacity="1.00" d=" M 238.93 299.97 C 241.65 298.28 244.52 296.49 247.82 296.34 C 246.59 301.82 246.93 307.47 246.32 313.02 C 245.54 322.55 254.48 331.43 263.98 330.88 C 270.71 331.07 276.68 326.26 279.52 320.42 C 281.76 314.30 281.43 307.66 282.22 301.27 C 292.36 307.38 297.83 320.45 295.00 331.97 C 293.11 339.87 287.77 346.68 281.03 351.07 C 266.60 360.61 245.74 358.83 233.33 346.69 C 226.01 339.77 222.38 328.90 224.92 319.04 C 226.73 311.09 232.15 304.33 238.93 299.97 Z" />
<path fill="#1a7a3d" opacity="1.00" d=" M 820.26 297.64 C 820.67 297.40 821.48 296.93 821.89 296.69 C 835.30 300.89 845.55 315.06 843.46 329.32 C 841.78 341.33 832.27 351.21 820.97 354.96 C 807.38 359.87 790.99 356.62 780.82 346.20 C 773.56 339.07 770.23 327.96 773.09 318.10 C 774.96 310.87 779.94 304.83 786.00 300.64 C 786.81 307.04 786.43 313.54 787.43 319.92 C 789.40 327.54 797.02 333.60 805.02 332.92 C 814.97 332.84 823.03 322.65 821.69 312.97 C 821.05 307.87 820.82 302.74 820.26 297.64 Z" />
<path fill="#1a7a3d" opacity="1.00" d=" M 0.00 893.94 C 1.80 894.58 1.43 896.88 0.52 898.14 L 0.00 897.78 L 0.00 893.94 Z" />
</g>
<g id="#ffffffff">
<path fill="#ffffff" opacity="1.00" d=" M 339.98 114.37 C 391.52 66.28 461.32 37.95 531.91 37.65 C 587.37 38.16 642.87 54.25 689.34 84.69 C 702.94 93.52 715.89 103.42 727.55 114.71 C 746.85 132.92 763.69 153.64 778.17 175.87 C 789.39 195.78 799.85 216.28 807.15 238.02 C 812.74 257.60 817.65 277.42 820.26 297.64 C 820.82 302.74 821.05 307.87 821.69 312.97 C 823.03 322.65 814.97 332.84 805.02 332.92 C 797.02 333.60 789.40 327.54 787.43 319.92 C 786.43 313.54 786.81 307.04 786.00 300.64 C 783.42 279.44 777.86 258.65 770.24 238.72 C 767.41 232.45 765.61 225.75 762.46 219.62 C 756.91 207.90 750.85 196.37 743.25 185.84 C 735.50 172.37 725.09 160.71 714.63 149.31 C 701.86 136.13 688.08 123.82 672.91 113.46 C 639.84 91.38 601.64 76.73 562.09 72.11 C 524.16 67.07 485.12 71.96 449.29 85.23 C 429.82 92.36 411.30 101.98 394.01 113.41 C 380.85 122.51 368.51 132.85 357.27 144.24 C 352.85 149.48 347.74 154.07 343.34 159.32 C 333.95 169.83 326.40 181.78 318.63 193.50 C 312.02 205.22 305.00 216.87 300.82 229.74 C 290.97 252.42 284.99 276.72 282.22 301.27 C 281.43 307.66 281.76 314.30 279.52 320.42 C 276.68 326.26 270.71 331.07 263.98 330.88 C 254.48 331.43 245.54 322.55 246.32 313.02 C 246.93 307.47 246.59 301.82 247.82 296.34 C 250.28 278.65 253.79 261.07 259.05 243.99 C 265.73 218.78 277.94 195.44 291.07 173.05 C 294.12 167.58 298.17 162.79 301.71 157.66 C 312.93 141.96 325.76 127.42 339.98 114.37 Z" />
</g>
<g id="#48b15fff">
<path fill="#48b15f" opacity="1.00" d=" M 357.27 144.24 C 368.51 132.85 380.85 122.51 394.01 113.41 C 396.73 115.00 399.97 114.31 402.96 114.44 C 488.65 114.42 574.34 114.42 660.03 114.43 C 664.32 114.35 668.86 115.30 672.91 113.46 C 688.08 123.82 701.86 136.13 714.63 149.31 C 725.09 160.71 735.50 172.37 743.25 185.84 C 750.85 196.37 756.91 207.90 762.46 219.62 C 765.61 225.75 767.41 232.45 770.24 238.72 C 777.86 258.65 783.42 279.44 786.00 300.64 C 779.94 304.83 774.96 310.87 773.09 318.10 C 770.23 327.96 773.56 339.07 780.82 346.20 C 790.99 356.62 807.38 359.87 820.97 354.96 C 832.27 351.21 841.78 341.33 843.46 329.32 C 845.55 315.06 835.30 300.89 821.89 296.69 C 821.48 296.93 820.67 297.40 820.26 297.64 C 817.65 277.42 812.74 257.60 807.15 238.02 C 799.85 216.28 789.39 195.78 778.17 175.87 C 763.69 153.64 746.85 132.92 727.55 114.71 C 749.71 114.22 771.88 114.49 794.04 114.43 C 826.36 114.43 858.68 114.42 891.00 114.43 C 902.03 114.48 913.09 114.09 924.07 115.31 C 957.55 117.76 989.93 131.77 1014.96 154.06 C 1038.09 174.64 1055.02 202.16 1062.70 232.16 C 1064.29 238.28 1064.93 244.64 1067.00 250.63 L 1067.00 904.78 C 1064.99 911.39 1064.65 918.38 1062.75 925.04 C 1053.62 963.33 1031.82 998.37 1001.78 1023.76 C 976.89 1044.89 946.40 1059.45 914.23 1065.09 C 911.21 1065.54 908.18 1065.94 905.31 1067.00 L 164.36 1067.00 C 150.84 1064.81 137.33 1062.13 124.44 1057.39 C 94.94 1046.96 68.18 1028.95 47.37 1005.59 C 20.84 975.97 4.07 937.77 0.52 898.14 C 1.43 896.88 1.80 894.58 0.00 893.94 L 0.00 260.83 C 1.15 257.31 1.12 253.58 1.61 249.95 C 5.43 221.89 17.10 194.96 34.89 172.92 C 55.09 147.76 83.27 129.07 114.38 120.45 C 131.15 115.81 148.62 114.26 165.97 114.42 C 223.98 114.39 281.98 114.49 339.98 114.37 C 325.76 127.42 312.93 141.96 301.71 157.66 C 298.17 162.79 294.12 167.58 291.07 173.05 C 277.94 195.44 265.73 218.78 259.05 243.99 C 253.79 261.07 250.28 278.65 247.82 296.34 C 244.52 296.49 241.65 298.28 238.93 299.97 C 232.15 304.33 226.73 311.09 224.92 319.04 C 222.38 328.90 226.01 339.77 233.33 346.69 C 245.74 358.83 266.60 360.61 281.03 351.07 C 287.77 346.68 293.11 339.87 295.00 331.97 C 297.83 320.45 292.36 307.38 282.22 301.27 C 284.99 276.72 290.97 252.42 300.82 229.74 C 305.00 216.87 312.02 205.22 318.63 193.50 C 326.40 181.78 333.95 169.83 343.34 159.32 C 347.74 154.07 352.85 149.48 357.27 144.24 M 691.56 396.57 C 673.22 399.42 655.84 408.53 643.60 422.55 C 630.41 437.32 623.04 457.21 623.70 477.02 C 623.84 499.37 634.38 521.31 651.39 535.76 C 665.39 547.61 683.61 554.92 702.05 554.58 C 724.24 555.47 746.42 545.70 761.40 529.42 C 781.98 507.93 788.25 474.38 777.37 446.77 C 769.93 427.00 754.13 410.66 734.75 402.34 C 721.24 396.34 706.14 394.82 691.56 396.57 M 393.55 440.43 C 362.49 461.23 336.34 489.24 317.62 521.59 C 298.42 554.53 287.04 592.01 284.76 630.07 C 280.51 692.07 301.08 755.40 340.86 803.19 C 386.16 858.43 456.44 892.71 528.02 892.85 C 593.40 894.59 658.71 868.01 705.13 822.08 C 741.03 786.92 765.82 740.55 774.87 691.10 C 776.08 685.76 775.33 680.21 776.69 674.90 C 777.18 667.27 776.64 659.57 777.54 651.96 C 777.57 632.22 777.57 612.47 777.58 592.73 C 744.72 592.66 711.86 592.75 679.00 592.70 C 675.92 592.57 673.16 594.17 670.41 595.33 C 646.16 606.15 628.91 631.39 628.42 658.04 C 625.76 688.38 607.24 716.67 580.88 731.80 C 551.11 749.42 511.95 749.41 482.16 731.85 C 466.22 722.59 452.97 708.72 444.66 692.25 C 431.46 666.99 430.28 635.88 441.59 609.72 C 454.77 577.21 487.10 553.60 522.05 550.89 C 526.67 550.12 531.47 550.37 535.91 548.72 C 559.68 540.36 580.91 521.16 586.66 495.99 C 587.79 488.39 586.86 480.65 587.81 473.03 C 587.77 458.03 588.22 443.01 587.36 428.02 C 587.03 419.05 587.67 410.04 587.08 401.08 C 576.03 401.05 564.99 401.28 553.96 401.08 C 551.29 400.58 548.63 400.90 545.97 401.14 C 528.63 401.17 511.29 401.12 493.95 401.16 C 458.13 406.61 423.60 420.20 393.55 440.43 Z" />
</g>
<g id="#474747ff">
<path fill="#474747" opacity="1.00" d=" M 691.56 396.57 C 706.14 394.82 721.24 396.34 734.75 402.34 C 754.13 410.66 769.93 427.00 777.37 446.77 C 788.25 474.38 781.98 507.93 761.40 529.42 C 746.42 545.70 724.24 555.47 702.05 554.58 C 683.61 554.92 665.39 547.61 651.39 535.76 C 634.38 521.31 623.84 499.37 623.70 477.02 C 623.04 457.21 630.41 437.32 643.60 422.55 C 655.84 408.53 673.22 399.42 691.56 396.57 M 691.40 407.55 C 678.54 409.30 666.73 415.54 656.85 423.77 C 645.71 433.73 638.26 447.56 635.47 462.20 C 631.32 483.22 637.54 506.23 652.09 522.01 C 654.14 525.27 657.53 527.21 660.42 529.64 C 668.30 535.90 677.70 540.07 687.46 542.40 C 694.79 544.62 702.51 543.52 710.04 543.79 C 733.16 541.78 755.26 527.28 764.91 505.95 C 775.12 485.26 774.12 459.45 762.37 439.62 C 751.44 421.31 731.51 408.37 710.06 407.17 C 703.84 407.36 697.59 406.84 691.40 407.55 Z" />
<path fill="#474747" opacity="1.00" d=" M 393.55 440.43 C 423.60 420.20 458.13 406.61 493.95 401.16 C 511.29 401.12 528.63 401.17 545.97 401.14 C 548.63 400.90 551.29 400.58 553.96 401.08 C 564.99 401.28 576.03 401.05 587.08 401.08 C 587.67 410.04 587.03 419.05 587.36 428.02 C 588.22 443.01 587.77 458.03 587.81 473.03 C 586.86 480.65 587.79 488.39 586.66 495.99 C 580.91 521.16 559.68 540.36 535.91 548.72 C 531.47 550.37 526.67 550.12 522.05 550.89 C 487.10 553.60 454.77 577.21 441.59 609.72 C 430.28 635.88 431.46 666.99 444.66 692.25 C 452.97 708.72 466.22 722.59 482.16 731.85 C 511.95 749.41 551.11 749.42 580.88 731.80 C 607.24 716.67 625.76 688.38 628.42 658.04 C 628.91 631.39 646.16 606.15 670.41 595.33 C 673.16 594.17 675.92 592.57 679.00 592.70 C 711.86 592.75 744.72 592.66 777.58 592.73 C 777.57 612.47 777.57 632.22 777.54 651.96 C 776.64 659.57 777.18 667.27 776.69 674.90 C 775.33 680.21 776.08 685.76 774.87 691.10 C 765.82 740.55 741.03 786.92 705.13 822.08 C 658.71 868.01 593.40 894.59 528.02 892.85 C 456.44 892.71 386.16 858.43 340.86 803.19 C 301.08 755.40 280.51 692.07 284.76 630.07 C 287.04 592.01 298.42 554.53 317.62 521.59 C 336.34 489.24 362.49 461.23 393.55 440.43 M 494.49 409.68 C 471.02 412.59 448.49 420.53 427.05 430.27 C 404.92 441.27 384.36 455.46 366.30 472.32 C 361.88 477.21 356.65 481.35 352.71 486.67 C 340.71 500.06 330.44 514.95 321.72 530.67 C 317.77 536.75 315.40 543.63 312.24 550.12 C 302.31 573.25 295.85 597.92 293.46 622.99 C 293.85 628.05 291.93 632.93 292.42 638.01 C 292.77 646.01 291.72 654.10 293.03 662.04 C 296.46 715.26 318.44 767.14 354.31 806.63 C 360.06 812.24 365.65 818.00 371.34 823.67 C 387.82 838.06 405.91 850.82 425.76 860.14 C 439.92 867.72 455.30 872.63 470.67 877.08 C 486.17 881.12 502.09 883.38 518.02 884.62 C 527.35 884.54 536.68 884.55 546.01 884.60 C 572.84 882.81 599.44 876.69 624.28 866.32 C 631.11 863.11 638.32 860.67 644.72 856.61 C 662.43 847.14 679.17 835.64 693.71 821.76 C 701.10 816.47 706.35 808.97 712.64 802.56 C 732.04 779.82 747.65 753.69 757.25 725.33 C 762.65 710.11 766.64 694.25 767.99 678.13 C 769.39 672.26 767.70 666.16 769.11 660.30 C 769.84 656.91 769.53 653.42 769.57 649.99 C 769.60 638.67 769.55 627.35 769.61 616.03 C 769.75 612.13 768.43 608.13 765.70 605.31 C 762.67 601.57 757.50 600.90 753.02 600.43 C 733.00 600.40 712.98 600.50 692.95 600.42 C 690.58 600.37 688.29 601.01 685.96 601.28 C 674.99 601.83 664.41 606.89 656.86 614.84 C 653.64 618.28 649.88 621.31 647.53 625.48 C 639.20 637.60 637.13 652.51 634.91 666.70 C 631.74 683.72 624.28 699.95 613.32 713.37 C 596.53 734.39 571.28 748.69 544.48 751.78 C 538.39 753.12 532.11 752.15 525.94 752.51 C 509.11 751.70 492.55 746.55 478.02 738.04 C 471.25 733.97 465.12 728.96 459.14 723.84 C 442.42 707.66 430.85 686.07 427.46 662.99 C 425.73 655.44 426.92 647.67 426.50 640.01 C 427.90 620.22 435.35 601.07 447.14 585.16 C 450.67 579.78 455.78 575.77 460.12 571.10 C 465.32 565.45 471.95 561.46 478.29 557.23 C 486.81 552.54 495.73 548.34 505.24 546.11 C 513.73 543.82 522.54 543.07 531.06 540.88 C 542.29 537.52 553.26 532.02 561.14 523.14 C 569.02 516.15 574.63 506.77 577.25 496.60 C 578.95 488.50 579.88 480.21 579.58 471.93 C 579.61 458.94 579.58 445.95 579.54 432.96 C 579.49 427.87 580.15 422.56 578.05 417.75 C 576.07 412.14 569.72 408.97 564.01 409.39 C 540.84 409.65 517.63 409.07 494.49 409.68 Z" />
</g>
<g id="#535353ff">
<path fill="#535353" opacity="1.00" d=" M 691.40 407.55 C 697.59 406.84 703.84 407.36 710.06 407.17 C 731.51 408.37 751.44 421.31 762.37 439.62 C 774.12 459.45 775.12 485.26 764.91 505.95 C 755.26 527.28 733.16 541.78 710.04 543.79 C 702.51 543.52 694.79 544.62 687.46 542.40 C 677.70 540.07 668.30 535.90 660.42 529.64 C 657.53 527.21 654.14 525.27 652.09 522.01 C 637.54 506.23 631.32 483.22 635.47 462.20 C 638.26 447.56 645.71 433.73 656.85 423.77 C 666.73 415.54 678.54 409.30 691.40 407.55 Z" />
<path fill="#535353" opacity="1.00" d=" M 494.49 409.68 C 517.63 409.07 540.84 409.65 564.01 409.39 C 569.72 408.97 576.07 412.14 578.05 417.75 C 580.15 422.56 579.49 427.87 579.54 432.96 C 579.58 445.95 579.61 458.94 579.58 471.93 C 579.88 480.21 578.95 488.50 577.25 496.60 C 574.63 506.77 569.02 516.15 561.14 523.14 C 553.26 532.02 542.29 537.52 531.06 540.88 C 522.54 543.07 513.73 543.82 505.24 546.11 C 495.73 548.34 486.81 552.54 478.29 557.23 C 471.95 561.46 465.32 565.45 460.12 571.10 C 455.78 575.77 450.67 579.78 447.14 585.16 C 435.35 601.07 427.90 620.22 426.50 640.01 C 426.92 647.67 425.73 655.44 427.46 662.99 C 430.85 686.07 442.42 707.66 459.14 723.84 C 465.12 728.96 471.25 733.97 478.02 738.04 C 492.55 746.55 509.11 751.70 525.94 752.51 C 532.11 752.15 538.39 753.12 544.48 751.78 C 571.28 748.69 596.53 734.39 613.32 713.37 C 624.28 699.95 631.74 683.72 634.91 666.70 C 637.13 652.51 639.20 637.60 647.53 625.48 C 649.88 621.31 653.64 618.28 656.86 614.84 C 664.41 606.89 674.99 601.83 685.96 601.28 C 688.29 601.01 690.58 600.37 692.95 600.42 C 712.98 600.50 733.00 600.40 753.02 600.43 C 757.50 600.90 762.67 601.57 765.70 605.31 C 768.43 608.13 769.75 612.13 769.61 616.03 C 769.55 627.35 769.60 638.67 769.57 649.99 C 769.53 653.42 769.84 656.91 769.11 660.30 C 767.70 666.16 769.39 672.26 767.99 678.13 C 766.64 694.25 762.65 710.11 757.25 725.33 C 747.65 753.69 732.04 779.82 712.64 802.56 C 706.35 808.97 701.10 816.47 693.71 821.76 C 679.17 835.64 662.43 847.14 644.72 856.61 C 638.32 860.67 631.11 863.11 624.28 866.32 C 599.44 876.69 572.84 882.81 546.01 884.60 C 536.68 884.55 527.35 884.54 518.02 884.62 C 502.09 883.38 486.17 881.12 470.67 877.08 C 455.30 872.63 439.92 867.72 425.76 860.14 C 405.91 850.82 387.82 838.06 371.34 823.67 C 365.65 818.00 360.06 812.24 354.31 806.63 C 318.44 767.14 296.46 715.26 293.03 662.04 C 291.72 654.10 292.77 646.01 292.42 638.01 C 291.93 632.93 293.85 628.05 293.46 622.99 C 295.85 597.92 302.31 573.25 312.24 550.12 C 315.40 543.63 317.77 536.75 321.72 530.67 C 330.44 514.95 340.71 500.06 352.71 486.67 C 356.65 481.35 361.88 477.21 366.30 472.32 C 384.36 455.46 404.92 441.27 427.05 430.27 C 448.49 420.53 471.02 412.59 494.49 409.68 Z" />
</g>
</svg>
