<?xml version="1.0" encoding="UTF-8" ?>
<!DOCTYPE svg PUBLIC "-//W3C//DTD SVG 1.1//EN" "http://www.w3.org/Graphics/SVG/1.1/DTD/svg11.dtd">
<svg width="1024pt" height="1024pt" viewBox="0 0 1024 1024" version="1.1" xmlns="http://www.w3.org/2000/svg">
<g id="#006e9eff">
<path fill="#006e9e" opacity="1.00" d=" M 172.20 0.00 L 852.78 0.00 C 886.92 1.39 920.61 12.65 948.52 32.40 C 975.24 51.11 996.80 77.20 1009.88 107.10 C 1017.20 123.35 1021.65 140.78 1024.00 158.41 L 1024.00 241.55 C 1021.93 233.01 1020.82 224.23 1017.99 215.87 C 1008.22 184.31 987.72 156.23 960.65 137.29 C 938.49 121.73 912.03 112.28 884.99 110.66 C 876.71 109.63 868.36 110.08 860.04 110.00 C 826.36 110.00 792.68 110.00 759.01 110.00 C 738.86 110.12 718.69 109.74 698.55 110.20 C 680.59 92.90 659.69 78.88 637.71 67.20 C 597.45 46.72 552.22 35.86 507.01 36.11 C 486.51 36.63 466.08 39.41 446.17 44.37 C 401.57 55.90 359.73 78.52 326.04 110.01 C 268.02 109.98 210.00 110.02 151.97 109.99 C 133.26 110.31 114.45 113.20 96.94 120.01 C 68.05 130.89 42.89 151.15 25.73 176.77 C 12.32 196.77 3.78 220.00 1.16 243.94 C 1.03 246.57 0.85 249.22 0.00 251.73 L 0.00 176.18 C 0.29 152.67 5.40 129.23 14.85 107.70 C 27.62 78.25 48.58 52.45 74.63 33.72 C 102.90 13.19 137.31 1.41 172.20 0.00 Z" />
<path fill="#006e9e" opacity="1.00" d=" M 377.40 109.51 C 417.97 82.07 466.85 66.15 516.01 67.49 C 524.74 67.21 533.37 68.76 542.04 69.48 C 579.40 74.44 615.52 88.34 646.70 109.49 C 642.16 110.37 637.53 109.93 632.95 110.00 C 549.32 110.02 465.68 109.97 382.04 110.03 C 380.47 109.99 378.93 109.75 377.40 109.51 Z" />
<path fill="#006e9e" opacity="1.00" d=" M 217.39 301.36 C 221.19 292.79 229.13 286.49 238.00 283.77 C 236.70 289.08 237.08 294.58 236.48 299.98 C 235.37 309.47 244.51 318.54 253.98 317.58 C 260.13 317.62 265.28 313.13 268.16 308.04 C 270.55 301.91 270.08 295.14 271.03 288.71 C 279.46 294.52 285.01 304.72 283.88 315.09 C 282.76 327.75 272.36 338.14 260.41 341.41 C 245.28 346.09 226.87 340.33 218.74 326.34 C 214.36 318.85 213.83 309.27 217.39 301.36 Z" />
<path fill="#006e9e" opacity="1.00" d=" M 787.34 284.39 C 793.57 285.24 798.75 289.59 802.93 294.03 C 809.11 300.93 811.59 311.01 808.97 319.94 C 806.13 329.95 797.63 337.76 787.88 340.95 C 774.87 345.45 759.21 342.47 749.49 332.49 C 742.96 326.16 739.77 316.57 741.47 307.60 C 742.86 299.79 747.76 292.78 754.44 288.54 C 755.33 294.74 754.90 301.06 755.87 307.24 C 757.83 314.12 764.63 319.97 772.02 319.58 C 781.70 320.00 789.74 310.36 788.85 300.96 C 788.11 295.46 787.86 289.91 787.34 284.39 Z" />
<path fill="#006e9e" opacity="1.00" d=" M 0.00 856.83 C 1.92 858.03 1.61 860.55 0.76 862.33 L 0.00 862.17 L 0.00 856.83 Z" />
<path fill="#006e9e" opacity="1.00" d=" M 7.46 897.30 C 7.49 897.40 7.55 897.59 7.58 897.68 C 7.55 897.59 7.49 897.40 7.46 897.30 Z" />
</g>
<g id="#ffffffff">
<path fill="#ffffff" opacity="1.00" d=" M 446.17 44.37 C 466.08 39.41 486.51 36.63 507.01 36.11 C 552.22 35.86 597.45 46.72 637.71 67.20 C 659.69 78.88 680.59 92.90 698.55 110.20 C 717.87 128.26 734.46 149.07 748.70 171.30 C 751.38 177.48 755.27 183.02 758.04 189.15 C 764.67 201.94 770.38 215.22 775.06 228.83 C 779.12 244.26 783.69 259.64 785.79 275.48 C 786.46 278.42 787.01 281.39 787.34 284.39 C 787.86 289.91 788.11 295.46 788.85 300.96 C 789.74 310.36 781.70 320.00 772.02 319.58 C 764.63 319.97 757.83 314.12 755.87 307.24 C 754.90 301.06 755.33 294.74 754.44 288.54 C 751.82 267.85 746.40 247.57 738.88 228.14 C 736.56 223.28 735.25 218.02 732.90 213.17 C 727.23 201.21 721.28 189.26 713.40 178.59 C 706.27 165.90 696.45 155.01 686.74 144.27 C 674.51 131.48 661.19 119.67 646.70 109.49 C 615.52 88.34 579.40 74.44 542.04 69.48 C 533.37 68.76 524.74 67.21 516.01 67.49 C 466.85 66.15 417.97 82.07 377.40 109.51 C 364.87 118.39 353.03 128.28 342.30 139.27 C 338.61 143.89 334.05 147.70 330.33 152.29 C 320.91 162.58 313.53 174.47 305.79 186.00 C 299.27 197.76 292.15 209.44 288.28 222.39 C 284.70 229.22 282.74 236.71 280.28 243.97 C 275.77 258.54 272.83 273.58 271.03 288.71 C 270.08 295.14 270.55 301.91 268.16 308.04 C 265.28 313.13 260.13 317.62 253.98 317.58 C 244.51 318.54 235.37 309.47 236.48 299.98 C 237.08 294.58 236.70 289.08 238.00 283.77 C 240.31 265.28 244.41 247.02 250.10 229.27 C 251.71 221.24 255.54 213.94 258.35 206.30 C 264.27 192.99 270.97 180.02 278.51 167.55 C 281.67 161.35 286.31 156.09 290.17 150.34 C 300.79 135.78 312.67 122.12 326.04 110.01 C 359.73 78.52 401.57 55.90 446.17 44.37 Z" />
<path fill="#ffffff" opacity="1.00" d=" M 311.97 431.18 C 314.84 427.35 318.68 424.33 323.06 422.42 C 327.28 421.79 331.61 421.90 335.84 422.31 C 341.95 424.80 347.55 429.44 349.39 436.00 C 351.83 443.12 350.41 451.67 345.05 457.13 C 337.61 465.89 322.31 466.09 314.80 457.34 C 313.02 455.00 311.51 452.47 310.32 449.79 C 308.10 445.63 309.09 440.30 309.62 435.76 C 310.90 434.53 311.20 432.70 311.97 431.18 Z" />
<path fill="#ffffff" opacity="1.00" d=" M 701.08 426.45 C 705.47 424.48 710.29 424.34 715.02 424.61 C 715.21 427.02 714.09 429.10 712.93 431.11 C 705.34 448.09 692.62 461.94 681.28 476.44 C 652.52 511.15 621.69 544.02 590.87 576.90 C 528.12 642.83 462.83 706.40 394.78 766.79 C 373.58 785.50 352.03 803.97 328.48 819.70 C 323.50 823.24 317.35 824.52 311.46 825.63 C 310.68 815.62 316.37 806.74 322.05 799.02 C 352.30 757.77 387.90 720.93 422.27 683.18 C 440.41 662.70 459.65 643.25 478.71 623.63 C 492.55 609.50 507.08 596.06 521.03 582.04 C 552.84 551.79 584.61 521.50 617.53 492.47 C 637.04 474.89 657.03 457.82 677.80 441.73 C 685.39 436.40 692.41 430.00 701.08 426.45 Z" />
<path fill="#ffffff" opacity="1.00" d=" M 380.29 460.49 C 387.23 457.23 396.29 458.69 401.15 464.87 C 404.48 468.44 404.13 473.71 403.37 478.18 C 400.99 489.62 393.85 499.65 384.79 506.84 C 377.96 512.14 369.96 516.51 361.23 517.35 C 354.99 517.88 348.85 514.05 346.77 508.10 C 343.80 500.57 347.26 492.53 350.81 485.85 C 357.59 474.59 367.64 464.77 380.29 460.49 Z" />
<path fill="#ffffff" opacity="1.00" d=" M 443.59 494.89 C 447.41 493.95 451.60 494.84 454.89 496.94 C 457.13 499.38 457.96 502.77 458.26 505.99 C 456.56 519.44 448.80 531.15 440.32 541.35 C 431.43 551.50 420.73 560.06 408.89 566.53 C 402.04 569.72 393.93 572.94 386.50 569.76 C 383.24 568.65 382.21 565.11 381.59 562.09 C 380.66 553.67 384.99 545.94 388.85 538.80 C 399.65 521.29 415.23 506.50 433.96 497.78 C 436.97 496.24 440.29 495.49 443.59 494.89 Z" />
<path fill="#ffffff" opacity="1.00" d=" M 501.98 529.82 C 505.95 529.20 511.36 530.66 512.44 535.06 C 513.17 541.48 511.47 547.99 508.69 553.76 C 502.75 565.54 494.52 576.03 485.59 585.68 C 478.87 593.59 471.01 600.44 462.95 606.94 C 454.11 613.81 444.66 620.19 434.06 624.01 C 429.90 625.61 425.29 625.93 420.93 625.17 C 417.62 623.37 416.97 619.36 416.80 615.96 C 418.16 602.64 426.48 591.60 434.23 581.22 C 438.45 575.23 443.72 570.12 448.56 564.64 C 460.81 552.11 474.56 540.63 490.59 533.27 C 494.18 531.52 498.08 530.55 501.98 529.82 Z" />
<path fill="#ffffff" opacity="1.00" d=" M 593.19 624.16 C 597.15 623.01 601.77 623.23 605.02 626.01 C 607.93 629.18 607.09 634.14 606.16 637.96 C 600.12 655.48 588.47 670.48 575.72 683.68 C 562.80 696.48 548.65 708.50 532.11 716.34 C 526.88 718.18 521.32 720.30 515.70 719.06 C 511.08 717.73 510.14 712.04 510.73 707.92 C 511.91 701.26 515.07 695.16 518.33 689.30 C 526.86 674.14 539.00 661.46 551.60 649.64 C 563.75 638.81 577.23 628.44 593.19 624.16 Z" />
<path fill="#ffffff" opacity="1.00" d=" M 625.86 678.77 C 630.41 678.26 636.16 677.57 639.47 681.51 C 642.82 685.18 641.58 690.55 641.34 695.04 C 637.10 709.95 627.02 722.44 615.98 732.99 C 605.78 742.45 594.17 751.51 580.19 754.19 C 576.51 754.90 572.70 753.94 569.25 752.79 C 564.91 749.30 565.12 743.11 565.79 738.11 C 568.88 726.56 575.99 716.66 583.51 707.59 C 588.96 701.72 594.66 696.05 601.20 691.39 C 608.68 685.96 616.72 680.84 625.86 678.77 Z" />
<path fill="#ffffff" opacity="1.00" d=" M 655.08 733.08 C 661.27 732.12 669.16 730.89 673.69 736.39 C 677.94 740.39 678.11 746.50 677.38 751.91 C 671.95 770.55 656.36 786.28 637.15 790.32 C 630.77 791.06 623.58 788.06 620.86 781.98 C 619.19 774.72 620.46 766.93 623.70 760.28 C 630.09 747.58 641.90 738.04 655.08 733.08 Z" />
<path fill="#ffffff" opacity="1.00" d=" M 688.13 785.26 C 699.05 782.08 711.84 789.97 713.62 801.19 C 715.47 802.81 714.22 805.87 714.60 808.07 C 713.63 814.08 710.38 819.94 705.17 823.38 C 704.62 823.47 703.52 823.65 702.97 823.74 C 698.86 826.62 693.64 825.89 688.92 825.77 C 677.05 824.07 669.64 810.19 673.54 799.13 C 675.59 792.41 681.35 787.03 688.13 785.26 Z" />
</g>
<g id="#009de2ff">
<path fill="#009de2" opacity="1.00" d=" M 342.30 139.27 C 353.03 128.28 364.87 118.39 377.40 109.51 C 378.93 109.75 380.47 109.99 382.04 110.03 C 465.68 109.97 549.32 110.02 632.95 110.00 C 637.53 109.93 642.16 110.37 646.70 109.49 C 661.19 119.67 674.51 131.48 686.74 144.27 C 696.45 155.01 706.27 165.90 713.40 178.59 C 721.28 189.26 727.23 201.21 732.90 213.17 C 735.25 218.02 736.56 223.28 738.88 228.14 C 746.40 247.57 751.82 267.85 754.44 288.54 C 747.76 292.78 742.86 299.79 741.47 307.60 C 739.77 316.57 742.96 326.16 749.49 332.49 C 759.21 342.47 774.87 345.45 787.88 340.95 C 797.63 337.76 806.13 329.95 808.97 319.94 C 811.59 311.01 809.11 300.93 802.93 294.03 C 798.75 289.59 793.57 285.24 787.34 284.39 C 787.01 281.39 786.46 278.42 785.79 275.48 C 783.69 259.64 779.12 244.26 775.06 228.83 C 770.38 215.22 764.67 201.94 758.04 189.15 C 755.27 183.02 751.38 177.48 748.70 171.30 C 734.46 149.07 717.87 128.26 698.55 110.20 C 718.69 109.74 738.86 110.12 759.01 110.00 C 792.68 110.00 826.36 110.00 860.04 110.00 C 868.36 110.08 876.71 109.63 884.99 110.66 C 912.03 112.28 938.49 121.73 960.65 137.29 C 987.72 156.23 1008.22 184.31 1017.99 215.87 C 1020.82 224.23 1021.93 233.01 1024.00 241.55 L 1024.00 870.44 L 1023.58 868.15 C 1019.13 905.70 1001.95 941.53 975.94 968.93 C 950.52 995.93 916.53 1014.83 880.07 1021.82 C 876.28 1022.63 872.38 1022.83 868.68 1024.00 L 159.26 1024.00 C 125.52 1020.34 93.00 1006.63 66.68 985.24 C 38.81 962.83 18.03 931.87 7.58 897.68 C 7.55 897.59 7.49 897.40 7.46 897.30 C 4.19 885.88 1.64 874.19 0.76 862.33 C 1.61 860.55 1.92 858.03 0.00 856.83 L 0.00 251.73 C 0.85 249.22 1.03 246.57 1.16 243.94 C 3.78 220.00 12.32 196.77 25.73 176.77 C 42.89 151.15 68.05 130.89 96.94 120.01 C 114.45 113.20 133.26 110.31 151.97 109.99 C 210.00 110.02 268.02 109.98 326.04 110.01 C 312.67 122.12 300.79 135.78 290.17 150.34 C 286.31 156.09 281.67 161.35 278.51 167.55 C 270.97 180.02 264.27 192.99 258.35 206.30 C 255.54 213.94 251.71 221.24 250.10 229.27 C 244.41 247.02 240.31 265.28 238.00 283.77 C 229.13 286.49 221.19 292.79 217.39 301.36 C 213.83 309.27 214.36 318.85 218.74 326.34 C 226.87 340.33 245.28 346.09 260.41 341.41 C 272.36 338.14 282.76 327.75 283.88 315.09 C 285.01 304.72 279.46 294.52 271.03 288.71 C 272.83 273.58 275.77 258.54 280.28 243.97 C 282.74 236.71 284.70 229.22 288.28 222.39 C 292.15 209.44 299.27 197.76 305.79 186.00 C 313.53 174.47 320.91 162.58 330.33 152.29 C 334.05 147.70 338.61 143.89 342.30 139.27 M 311.97 431.18 C 311.20 432.70 310.90 434.53 309.62 435.76 C 309.09 440.30 308.10 445.63 310.32 449.79 C 311.51 452.47 313.02 455.00 314.80 457.34 C 322.31 466.09 337.61 465.89 345.05 457.13 C 350.41 451.67 351.83 443.12 349.39 436.00 C 347.55 429.44 341.95 424.80 335.84 422.31 C 331.61 421.90 327.28 421.79 323.06 422.42 C 318.68 424.33 314.84 427.35 311.97 431.18 M 701.08 426.45 C 692.41 430.00 685.39 436.40 677.80 441.73 C 657.03 457.82 637.04 474.89 617.53 492.47 C 584.61 521.50 552.84 551.79 521.03 582.04 C 507.08 596.06 492.55 609.50 478.71 623.63 C 459.65 643.25 440.41 662.70 422.27 683.18 C 387.90 720.93 352.30 757.77 322.05 799.02 C 316.37 806.74 310.68 815.62 311.46 825.63 C 317.35 824.52 323.50 823.24 328.48 819.70 C 352.03 803.97 373.58 785.50 394.78 766.79 C 462.83 706.40 528.12 642.83 590.87 576.90 C 621.69 544.02 652.52 511.15 681.28 476.44 C 692.62 461.94 705.34 448.09 712.93 431.11 C 714.09 429.10 715.21 427.02 715.02 424.61 C 710.29 424.34 705.47 424.48 701.08 426.45 M 380.29 460.49 C 367.64 464.77 357.59 474.59 350.81 485.85 C 347.26 492.53 343.80 500.57 346.77 508.10 C 348.85 514.05 354.99 517.88 361.23 517.35 C 369.96 516.51 377.96 512.14 384.79 506.84 C 393.85 499.65 400.99 489.62 403.37 478.18 C 404.13 473.71 404.48 468.44 401.15 464.87 C 396.29 458.69 387.23 457.23 380.29 460.49 M 443.59 494.89 C 440.29 495.49 436.97 496.24 433.96 497.78 C 415.23 506.50 399.65 521.29 388.85 538.80 C 384.99 545.94 380.66 553.67 381.59 562.09 C 382.21 565.11 383.24 568.65 386.50 569.76 C 393.93 572.94 402.04 569.72 408.89 566.53 C 420.73 560.06 431.43 551.50 440.32 541.35 C 448.80 531.15 456.56 519.44 458.26 505.99 C 457.96 502.77 457.13 499.38 454.89 496.94 C 451.60 494.84 447.41 493.95 443.59 494.89 M 501.98 529.82 C 498.08 530.55 494.18 531.52 490.59 533.27 C 474.56 540.63 460.81 552.11 448.56 564.64 C 443.72 570.12 438.45 575.23 434.23 581.22 C 426.48 591.60 418.16 602.64 416.80 615.96 C 416.97 619.36 417.62 623.37 420.93 625.17 C 425.29 625.93 429.90 625.61 434.06 624.01 C 444.66 620.19 454.11 613.81 462.95 606.94 C 471.01 600.44 478.87 593.59 485.59 585.68 C 494.52 576.03 502.75 565.54 508.69 553.76 C 511.47 547.99 513.17 541.48 512.44 535.06 C 511.36 530.66 505.95 529.20 501.98 529.82 M 593.19 624.16 C 577.23 628.44 563.75 638.81 551.60 649.64 C 539.00 661.46 526.86 674.14 518.33 689.30 C 515.07 695.16 511.91 701.26 510.73 707.92 C 510.14 712.04 511.08 717.73 515.70 719.06 C 521.32 720.30 526.88 718.18 532.11 716.34 C 548.65 708.50 562.80 696.48 575.72 683.68 C 588.47 670.48 600.12 655.48 606.16 637.96 C 607.09 634.14 607.93 629.18 605.02 626.01 C 601.77 623.23 597.15 623.01 593.19 624.16 M 625.86 678.77 C 616.72 680.84 608.68 685.96 601.20 691.39 C 594.66 696.05 588.96 701.72 583.51 707.59 C 575.99 716.66 568.88 726.56 565.79 738.11 C 565.12 743.11 564.91 749.30 569.25 752.79 C 572.70 753.94 576.51 754.90 580.19 754.19 C 594.17 751.51 605.78 742.45 615.98 732.99 C 627.02 722.44 637.10 709.95 641.34 695.04 C 641.58 690.55 642.82 685.18 639.47 681.51 C 636.16 677.57 630.41 678.26 625.86 678.77 M 655.08 733.08 C 641.90 738.04 630.09 747.58 623.70 760.28 C 620.46 766.93 619.19 774.72 620.86 781.98 C 623.58 788.06 630.77 791.06 637.15 790.32 C 656.36 786.28 671.95 770.55 677.38 751.91 C 678.11 746.50 677.94 740.39 673.69 736.39 C 669.16 730.89 661.27 732.12 655.08 733.08 M 688.13 785.26 C 681.35 787.03 675.59 792.41 673.54 799.13 C 669.64 810.19 677.05 824.07 688.92 825.77 C 693.64 825.89 698.86 826.62 702.97 823.74 C 703.52 823.65 704.62 823.47 705.17 823.38 C 710.38 819.94 713.63 814.08 714.60 808.07 C 714.22 805.87 715.47 802.81 713.62 801.19 C 711.84 789.97 699.05 782.08 688.13 785.26 Z" />
</g>
</svg>
